<?xml version="1.0" standalone="no"?>
<!DOCTYPE svg PUBLIC "-//W3C//DTD SVG 20010904//EN"
 "http://www.w3.org/TR/2001/REC-SVG-20010904/DTD/svg10.dtd">
<svg version="1.0" xmlns="http://www.w3.org/2000/svg"
 width="813.000000pt" height="813.000000pt" viewBox="0 0 813.000000 813.000000"
 preserveAspectRatio="xMidYMid meet">
<metadata>
Created by potrace 1.11, written by Peter Selinger 2001-2013
</metadata>
<g transform="translate(0.000000,813.000000) scale(0.100000,-0.100000)"
fill="#000000" stroke="none">
<path d="M1540 8075 c14 -17 28 -31 33 -33 4 -2 4 -9 1 -14 -4 -7 -2 -8 4 -4
7 4 12 1 12 -6 0 -7 9 -19 20 -26 11 -7 20 -20 20 -29 0 -9 3 -13 7 -10 7 8
39 -34 35 -45 -1 -5 5 -8 13 -8 8 0 15 -3 15 -8 0 -4 12 -21 28 -37 15 -16 26
-33 25 -37 -2 -5 4 -8 13 -8 10 0 14 -6 10 -15 -3 -8 -1 -15 4 -15 15 0 50
-33 50 -47 0 -7 5 -13 11 -13 5 0 7 -5 3 -12 -4 -6 -3 -8 3 -5 13 8 45 -26 41
-44 -2 -7 2 -13 9 -14 17 0 84 -81 75 -90 -4 -5 -2 -5 4 -2 9 5 54 -34 54 -48
0 -3 8 -13 18 -23 63 -66 111 -126 105 -135 -3 -6 -2 -7 4 -4 5 3 20 -8 33
-26 13 -18 30 -36 37 -40 7 -5 11 -13 7 -18 -3 -5 0 -8 8 -7 7 2 12 -5 12 -14
-1 -10 2 -16 6 -13 4 3 25 -16 46 -41 22 -25 47 -55 56 -66 10 -11 15 -25 11
-31 -3 -5 -1 -7 5 -4 5 4 30 -17 54 -45 23 -29 53 -63 66 -76 12 -13 20 -28
16 -33 -3 -5 0 -8 8 -7 7 2 12 -4 10 -12 -2 -8 -1 -12 3 -8 7 7 35 -15 35 -27
0 -4 14 -20 31 -36 17 -16 27 -29 23 -29 -5 0 2 -7 14 -16 12 -8 19 -21 16
-27 -4 -7 -4 -9 1 -5 9 8 35 -15 35 -32 0 -6 5 -8 10 -5 6 3 10 -1 10 -9 0 -9
5 -16 11 -16 5 0 7 -5 3 -12 -4 -7 -3 -8 4 -4 13 8 35 -28 24 -39 -4 -5 -2 -5
4 -2 9 5 32 -16 83 -79 6 -7 7 -15 3 -20 -4 -4 -2 -4 4 -1 7 4 19 -3 27 -16 8
-12 29 -37 46 -56 17 -19 28 -38 25 -43 -3 -5 -2 -7 3 -6 14 5 65 -51 58 -62
-4 -6 -3 -9 2 -8 12 4 64 -50 68 -70 1 -9 7 -16 13 -15 5 1 20 -12 33 -29 13
-17 36 -43 51 -58 15 -15 24 -30 21 -34 -4 -3 -1 -6 6 -6 7 0 9 -5 5 -12 -4
-6 -3 -8 3 -5 6 4 23 -10 39 -30 16 -19 37 -43 47 -52 9 -8 17 -19 17 -24 0
-5 11 -18 25 -29 14 -11 23 -24 19 -29 -3 -5 -2 -8 3 -7 4 2 9 -1 10 -6 0 -5
8 -13 17 -18 9 -5 14 -14 10 -19 -3 -5 -2 -8 3 -7 11 4 53 -34 53 -47 0 -6 9
-17 20 -25 11 -8 20 -21 20 -29 0 -8 3 -11 7 -8 7 8 39 -34 35 -45 -1 -5 5 -8
13 -8 8 0 15 -3 15 -8 0 -4 11 -20 25 -35 15 -16 20 -27 13 -27 -9 0 -10 -3
-2 -8 16 -10 17 -122 1 -122 -9 0 -9 -2 1 -8 9 -6 12 -30 10 -79 -2 -40 1 -69
6 -66 5 3 7 -6 4 -20 -3 -15 -2 -24 2 -22 9 6 36 -55 32 -70 -2 -5 -1 -7 3 -3
10 9 55 -33 48 -45 -3 -6 -1 -7 5 -3 12 7 62 -13 62 -25 0 -4 9 -5 20 -2 24 6
28 -14 15 -77 -2 -8 -4 -22 -4 -30 -1 -13 -2 -13 -11 0 -8 11 -9 8 -4 -12 4
-20 2 -28 -7 -28 -11 0 -11 -3 1 -10 8 -5 10 -10 5 -10 -6 0 -11 -8 -11 -17
-2 -28 -13 -79 -25 -110 -6 -15 -10 -29 -9 -31 1 -1 -2 -21 -6 -45 -4 -23 -7
-45 -6 -49 1 -5 -1 -8 -6 -8 -4 0 -8 -11 -9 -25 -4 -45 -6 -55 -14 -55 -4 0
-5 -10 -1 -22 3 -13 1 -19 -5 -15 -7 5 -9 0 -6 -13 3 -11 2 -28 -2 -37 -5 -10
-7 -24 -6 -32 1 -7 -2 -10 -8 -6 -7 3 -8 0 -5 -9 3 -8 2 -21 -2 -28 -4 -6 -9
-25 -11 -41 -2 -15 -8 -38 -14 -49 -8 -16 -8 -19 1 -13 9 6 9 3 1 -12 -10 -19
-23 -73 -24 -100 0 -7 -4 -13 -8 -13 -5 0 -5 -7 -2 -17 4 -9 2 -14 -3 -10 -6
3 -9 -10 -9 -30 1 -19 -5 -41 -12 -49 -8 -8 -10 -14 -4 -14 11 0 -5 -57 -20
-75 -5 -5 -9 -14 -9 -20 0 -5 5 -3 11 5 9 12 9 11 4 -5 -4 -11 -9 -29 -12 -40
-3 -11 -7 -27 -10 -35 -3 -8 -7 -26 -9 -39 -2 -13 -6 -31 -10 -40 -4 -9 -6
-24 -5 -35 2 -10 -1 -16 -6 -13 -4 3 -9 -18 -10 -46 -1 -29 -6 -53 -12 -55 -5
-2 -7 -10 -4 -18 3 -8 -1 -14 -8 -14 -11 0 -11 -3 1 -10 9 -6 11 -10 3 -10 -7
0 -10 -7 -7 -15 4 -8 2 -15 -4 -15 -6 0 -8 -10 -4 -22 3 -11 1 -19 -4 -16 -5
3 -10 -12 -11 -34 0 -23 -5 -43 -10 -47 -5 -3 -10 -18 -11 -33 -3 -50 -5 -58
-16 -58 -6 0 -5 -4 3 -9 9 -6 10 -11 2 -15 -6 -4 -11 -21 -11 -37 0 -20 -4
-28 -12 -23 -7 4 -8 3 -4 -5 12 -18 -14 -112 -27 -105 -9 5 -9 4 -1 -5 12 -13
8 -51 -5 -51 -4 0 -6 -14 -5 -30 1 -17 -2 -30 -6 -30 -4 0 -8 -10 -8 -22 0
-25 -10 -74 -19 -98 -4 -8 -7 -23 -8 -32 -2 -10 -4 -20 -5 -23 -1 -3 -3 -8 -4
-12 -1 -5 -5 -14 -10 -22 -6 -9 -5 -12 1 -8 7 4 5 -13 -4 -41 -8 -26 -15 -55
-15 -64 1 -10 -3 -18 -8 -18 -4 0 -6 -10 -2 -22 3 -13 1 -19 -5 -15 -6 4 -8
-3 -5 -18 2 -14 0 -25 -5 -25 -5 0 -10 -8 -10 -17 1 -59 -3 -78 -14 -63 -8 12
-9 11 -4 -6 3 -12 -2 -50 -10 -85 -9 -35 -17 -73 -19 -84 -2 -11 -6 -30 -10
-42 -4 -12 -11 -44 -16 -70 -10 -55 -12 -68 -40 -182 -6 -24 -9 -49 -6 -55 2
-6 5 -3 5 7 1 10 8 34 18 55 9 20 15 43 14 50 -1 6 2 12 6 12 5 0 10 10 10 22
1 13 7 24 13 26 5 2 8 7 5 12 -7 11 15 71 25 65 4 -2 6 7 4 20 -1 14 2 25 7
25 4 0 6 6 3 14 -3 7 1 20 8 27 7 8 14 25 16 38 1 14 8 31 14 39 7 7 13 21 14
30 5 35 14 66 21 71 8 6 10 12 17 54 2 12 10 21 17 19 10 -3 10 0 -1 12 -10
14 -10 16 6 17 11 0 14 3 8 5 -7 3 -10 14 -7 24 3 11 9 18 13 15 5 -3 6 4 3
15 -3 11 0 20 6 20 6 0 10 3 9 8 -1 4 5 27 12 52 8 25 14 49 14 53 1 4 8 12
16 17 11 7 11 10 2 10 -7 0 -10 5 -7 10 4 6 10 8 14 5 5 -2 6 7 3 20 -2 14 0
25 7 25 6 0 8 7 4 17 -4 11 -3 14 5 9 8 -5 10 -2 6 8 -3 9 -1 16 5 16 6 0 8 7
4 15 -3 9 2 24 12 35 9 10 14 23 11 28 -3 5 1 17 8 28 8 10 11 25 8 33 -3 9
-1 12 6 7 8 -5 10 -2 6 8 -3 9 -1 16 6 16 6 0 8 5 5 10 -4 6 -2 16 3 23 6 7
11 15 11 19 6 38 15 68 20 68 4 0 8 12 9 27 1 15 7 30 13 34 6 3 10 9 10 13
-2 17 24 96 32 96 5 0 7 7 3 15 -3 8 -1 15 4 15 5 0 7 7 4 15 -4 8 -1 15 5 15
6 0 10 3 10 8 -3 19 2 43 9 39 4 -3 8 6 8 19 1 13 5 32 10 42 4 9 8 20 9 25 2
4 3 8 4 10 2 1 5 13 7 27 2 13 11 35 19 47 9 13 13 23 10 23 -3 0 -1 9 5 21 7
11 14 33 16 47 3 15 11 30 18 34 8 5 11 18 8 34 -3 17 -1 25 6 20 6 -4 8 2 4
16 -3 14 -1 19 6 14 8 -5 10 -1 5 10 -4 11 -3 15 4 11 7 -5 9 1 5 15 -3 13 -1
19 5 15 7 -5 9 1 5 15 -3 14 -1 19 6 14 7 -4 10 1 7 14 -2 12 1 20 10 20 11 0
13 -31 13 -160 0 -116 -4 -158 -12 -153 -6 3 -6 0 2 -8 6 -7 12 -24 12 -37 0
-16 -4 -21 -12 -16 -10 6 -10 4 0 -7 6 -7 12 -23 12 -36 0 -13 -6 -23 -12 -23
-10 0 -10 -2 -2 -8 17 -10 17 -175 1 -166 -8 5 -8 2 0 -7 17 -17 17 -59 1 -59
-10 0 -10 -2 -2 -8 17 -10 17 -175 1 -166 -8 5 -8 2 0 -7 17 -17 17 -59 1 -59
-10 0 -10 -2 -1 -8 15 -9 15 -162 0 -181 -9 -12 -9 -13 0 -7 10 5 12 -20 12
-108 -1 -83 -5 -114 -13 -109 -6 3 -6 0 1 -8 17 -17 17 -59 1 -59 -10 0 -10
-2 -2 -8 17 -10 17 -175 1 -166 -8 5 -8 2 0 -7 17 -17 17 -59 1 -59 -10 0 -10
-2 -2 -8 17 -10 17 -175 1 -166 -8 5 -8 2 0 -7 17 -17 17 -59 1 -59 -10 0 -10
-2 -2 -8 17 -10 17 -175 1 -166 -8 5 -8 2 0 -7 17 -17 17 -59 1 -59 -10 0 -10
-2 -2 -8 17 -10 17 -175 1 -166 -8 5 -8 2 0 -7 17 -17 17 -59 1 -59 -10 0 -10
-2 -2 -8 16 -10 16 -222 1 -241 -9 -11 -9 -13 0 -8 16 10 15 -212 -1 -232 -8
-11 -8 -13 1 -8 16 10 15 -212 -1 -232 -8 -11 -8 -13 1 -8 16 10 15 -212 -1
-232 -8 -11 -8 -13 1 -8 16 10 16 -215 -1 -225 -8 -6 -8 -8 2 -8 6 0 12 -10
12 -23 0 -13 -6 -29 -12 -36 -10 -11 -10 -12 -1 -7 10 5 12 -39 10 -199 -1
-113 2 -205 6 -205 5 0 5 -4 2 -10 -3 -5 -1 -10 5 -10 7 0 9 -7 6 -16 -3 -8
-2 -12 3 -9 5 3 16 -3 23 -12 7 -10 20 -19 28 -21 8 -2 16 -7 18 -12 2 -5 9
-7 17 -4 7 3 16 1 19 -4 3 -6 15 -8 26 -5 13 3 20 0 20 -8 0 -11 2 -11 9 0 8
13 12 13 27 0 14 -11 16 -11 10 0 -7 11 0 13 32 9 22 -2 38 0 36 4 -5 7 10 12
29 9 4 0 7 4 7 10 0 6 7 8 17 5 10 -4 14 -4 11 0 -4 3 4 16 17 29 14 12 22 25
18 28 -3 4 -1 7 6 7 7 0 9 5 6 10 -4 6 -1 18 7 27 9 12 9 15 1 9 -7 -4 -13 -3
-13 3 0 5 5 13 10 16 6 4 7 11 4 17 -10 15 -13 89 -4 83 3 -2 7 2 7 10 0 8 -4
12 -9 9 -4 -3 -8 2 -8 11 0 10 5 13 13 9 9 -6 9 -5 0 7 -10 12 -10 18 0 29 6
7 7 10 1 7 -7 -4 -10 6 -10 28 1 19 4 35 8 35 5 0 8 5 8 11 0 5 -4 8 -9 5 -9
-6 -6 88 4 104 3 5 2 11 -3 14 -10 6 -9 57 2 75 6 10 5 12 -2 7 -15 -9 -16 6
-1 21 8 8 8 13 0 17 -6 4 -11 12 -11 17 0 6 5 7 12 3 7 -5 8 -3 3 6 -11 18
-13 118 -3 147 4 12 4 24 0 27 -10 6 -9 57 2 75 6 10 5 12 -2 7 -15 -9 -16 6
-1 21 8 8 8 13 0 17 -6 4 -11 12 -11 17 0 6 5 7 12 3 7 -5 8 -3 3 5 -10 18
-13 71 -3 77 5 3 5 11 1 17 -11 18 -10 60 1 76 8 11 8 13 -1 7 -7 -4 -13 -3
-13 3 0 5 5 13 10 16 7 4 7 11 2 18 -11 15 -12 47 0 47 4 0 8 5 8 11 0 5 -4 7
-10 4 -5 -3 -10 -1 -10 4 0 6 6 11 13 11 8 0 8 3 -2 9 -13 8 -13 12 0 27 9 11
9 15 2 10 -16 -9 -17 6 -2 21 8 8 8 13 0 17 -6 4 -11 16 -11 27 0 14 4 18 13
13 9 -6 9 -5 0 7 -10 12 -10 18 0 29 6 7 7 10 1 7 -7 -4 -10 6 -10 28 1 19 4
35 8 35 5 0 8 5 8 11 0 5 -4 8 -9 5 -9 -6 -6 88 4 104 3 5 2 11 -3 14 -10 6
-9 57 2 75 6 10 5 12 -2 7 -15 -9 -16 6 -1 21 8 8 8 13 0 17 -6 4 -11 12 -11
17 0 6 5 7 12 3 7 -4 8 -3 4 5 -4 6 -9 32 -12 57 -3 35 -1 44 8 38 10 -6 11
-5 1 7 -10 12 -10 18 0 29 6 7 7 10 1 7 -7 -4 -10 6 -10 28 1 19 4 35 8 35 5
0 8 5 8 11 0 5 -4 7 -10 4 -5 -3 -10 -2 -10 4 0 5 5 13 10 16 6 4 7 12 3 18
-11 18 -10 60 1 76 8 11 8 13 -1 7 -7 -4 -13 -3 -13 3 0 5 5 13 10 16 7 4 7
11 2 18 -11 15 -12 47 0 47 4 0 8 5 8 11 0 5 -4 7 -10 4 -5 -3 -10 -1 -10 4 0
6 6 11 13 11 8 0 8 3 -2 9 -13 8 -13 12 0 27 9 11 9 15 2 10 -7 -4 -13 -3 -13
3 0 5 5 13 10 16 7 4 7 12 2 18 -9 13 -8 76 1 101 3 8 3 17 -1 20 -10 6 -9 58
2 75 6 10 5 12 -2 7 -15 -9 -16 6 -1 21 8 8 8 13 0 17 -6 4 -11 12 -11 17 0 6
5 7 12 3 7 -5 8 -3 3 6 -11 18 -13 118 -3 147 4 12 4 24 0 27 -10 6 -9 57 2
75 6 10 5 12 -2 7 -15 -9 -16 6 -1 21 8 8 8 13 0 17 -6 4 -11 12 -11 17 0 6 5
7 12 3 7 -5 8 -3 3 5 -10 18 -13 71 -3 77 5 3 5 11 1 17 -11 18 -10 60 1 76 8
11 8 13 -1 7 -7 -4 -13 -3 -13 3 0 5 5 13 10 16 7 4 7 11 2 18 -11 15 -12 47
0 47 4 0 8 5 8 11 0 5 -4 7 -10 4 -5 -3 -10 -1 -10 4 0 6 6 11 13 11 8 0 8 3
-2 9 -13 8 -13 12 0 27 9 11 9 15 2 10 -16 -9 -17 6 -2 21 8 8 8 13 0 17 -6 4
-11 16 -11 27 0 14 4 18 13 13 9 -6 9 -5 0 7 -10 12 -10 18 0 29 6 7 7 10 1 7
-7 -4 -10 6 -10 28 1 19 4 35 8 35 5 0 8 5 8 11 0 5 -4 8 -9 5 -9 -6 -6 88 4
104 3 5 2 11 -3 14 -10 6 -9 57 2 75 6 10 5 12 -2 7 -15 -9 -16 6 -1 21 8 8 8
13 0 17 -6 4 -11 12 -11 17 0 6 5 7 12 3 7 -4 8 -3 4 5 -4 6 -9 32 -12 57 -3
35 -1 44 8 38 10 -6 11 -5 1 7 -10 12 -10 18 0 29 6 7 7 10 1 7 -7 -4 -10 6
-10 28 1 19 4 35 8 35 5 0 8 5 8 11 0 5 -4 7 -10 4 -5 -3 -10 -2 -10 4 0 5 5
13 10 16 6 4 7 12 3 18 -11 18 -10 60 1 76 8 11 8 13 -2 7 -6 -4 -12 -3 -12 3
0 5 5 13 10 16 7 4 7 11 2 18 -11 15 -12 47 0 47 4 0 8 5 8 11 0 5 -4 7 -10 4
-6 -3 -10 -1 -10 4 0 6 6 11 13 11 8 0 8 3 -2 9 -13 8 -13 12 0 27 9 11 9 15
2 10 -7 -4 -13 -3 -13 3 0 5 5 13 10 16 8 5 8 11 0 20 -8 9 -8 15 0 20 6 3 7
12 3 18 -11 18 -10 60 1 76 8 11 8 13 -1 7 -7 -4 -13 -3 -13 3 0 5 5 13 10 16
7 4 7 11 2 18 -11 15 -12 47 0 47 4 0 8 5 8 11 0 5 -4 7 -10 4 -5 -3 -10 -1
-10 4 0 6 6 11 13 11 8 0 8 3 -2 9 -13 8 -13 12 0 27 9 11 9 15 1 10 -15 -9
-16 6 -1 21 8 8 8 13 0 17 -6 4 -11 16 -11 27 0 14 4 18 13 13 9 -6 9 -5 0 7
-10 12 -10 18 0 29 6 7 7 10 1 7 -7 -4 -10 6 -10 28 1 19 4 35 8 35 5 0 8 5 8
11 0 5 -4 8 -9 5 -9 -6 -6 88 4 104 3 5 2 11 -3 14 -10 6 -9 57 2 75 6 10 5
12 -2 7 -15 -9 -16 6 -1 21 8 8 8 13 0 17 -6 4 -11 12 -11 17 0 6 5 7 12 3 7
-4 8 -3 4 5 -4 6 -9 32 -12 57 -3 35 -1 44 8 38 10 -6 11 -5 1 7 -10 12 -10
18 0 29 9 10 9 11 0 6 -16 -9 -16 -1 -2 25 5 11 14 17 20 14 5 -4 9 -1 9 6 0
8 5 7 17 -2 9 -8 14 -9 10 -2 -5 7 1 14 15 19 12 4 31 17 41 30 10 13 23 23
30 21 6 -1 12 4 13 11 1 6 2 17 3 23 0 5 6 7 11 4 6 -4 10 -3 9 2 -4 22 2 44
10 39 5 -4 7 3 4 14 -3 11 0 26 6 33 6 8 8 17 4 21 -4 4 -1 11 7 16 8 6 10 10
4 10 -7 0 -11 26 -10 73 1 67 2 72 23 71 12 0 20 3 17 8 -5 7 19 12 54 11 6
-1 12 3 12 7 0 8 64 25 88 23 6 0 12 4 12 9 0 6 9 8 20 5 10 -3 25 2 31 10 7
8 21 12 31 10 11 -3 15 -1 12 5 -5 7 2 9 19 6 15 -3 24 -1 21 3 -3 5 2 10 10
10 17 2 35 5 39 9 4 3 42 12 60 13 9 1 17 6 17 11 0 5 3 6 7 3 3 -4 11 -3 17
2 6 6 23 12 36 14 14 2 32 6 40 10 19 7 62 16 74 16 5 -1 12 4 16 11 4 6 23
12 42 13 20 1 33 6 30 11 -3 5 2 7 11 3 9 -3 17 -2 19 3 2 5 14 11 28 13 14 2
33 7 42 12 10 4 29 8 43 9 14 0 25 5 25 9 0 5 5 5 10 2 6 -3 10 -2 10 4 0 5
11 8 25 7 13 -2 22 1 19 5 -5 9 1 10 44 12 9 1 20 5 23 9 3 5 20 10 37 11 18
1 32 6 32 10 0 5 5 5 10 2 6 -3 10 -1 10 4 0 6 3 10 8 9 4 -1 25 4 46 10 22 6
44 8 49 5 6 -4 7 -1 2 7 -6 10 -3 12 13 8 13 -4 22 -1 22 5 0 6 3 7 7 4 3 -4
12 -2 20 4 7 6 13 9 13 6 0 -3 16 1 35 9 20 8 40 12 45 9 6 -4 10 -2 10 4 0 5
9 8 20 6 11 -2 18 0 15 6 -4 5 3 10 14 10 25 2 28 2 66 18 59 23 59 23 44 4
-7 -10 -1 -7 13 6 17 15 34 22 48 18 12 -3 18 -1 14 5 -5 7 2 9 19 6 15 -3 24
-2 22 3 -3 4 9 11 27 15 42 10 40 9 58 17 8 4 26 8 40 9 14 2 27 6 30 9 3 4
16 9 30 10 14 2 28 7 31 12 3 4 20 9 37 10 18 1 32 6 32 10 0 5 4 6 9 2 5 -3
13 0 16 6 4 5 13 8 20 5 8 -3 15 -1 17 4 2 5 19 11 38 13 19 2 45 9 58 16 13
7 30 10 37 7 7 -2 16 1 19 9 2 7 16 12 30 11 15 -2 23 1 19 7 -4 6 2 8 15 5
14 -4 20 -2 15 5 -4 6 2 8 15 5 12 -4 22 -2 22 4 0 6 9 8 20 5 11 -3 18 -2 16
2 -5 7 92 37 107 33 4 -1 7 3 7 9 0 8 6 7 17 -2 14 -12 16 -12 8 0 -6 11 -3
13 14 8 13 -3 20 -3 17 1 -9 9 195 74 211 67 8 -2 12 -1 9 4 -5 7 95 42 134
46 8 1 25 7 38 14 13 7 30 10 38 7 8 -3 14 -1 14 4 0 6 8 10 18 10 9 0 24 5
32 10 10 7 -2 9 -41 7 -32 -1 -55 -5 -52 -9 2 -5 -4 -8 -14 -9 -10 0 -27 -2
-38 -4 -11 -3 -33 -6 -50 -8 -16 -3 -38 -8 -47 -12 -9 -4 -22 -4 -28 0 -5 3
-10 2 -10 -2 0 -5 -8 -9 -17 -10 -10 -1 -36 -4 -58 -8 -22 -3 -50 -7 -62 -8
-13 0 -23 -4 -23 -7 0 -3 -15 -5 -32 -5 -18 0 -37 -2 -43 -6 -5 -3 -25 -9 -43
-12 -25 -5 -31 -4 -26 6 4 6 -1 5 -12 -4 -10 -9 -31 -16 -46 -15 -16 1 -28 -1
-28 -5 0 -4 -15 -6 -34 -5 -19 1 -32 -3 -29 -8 3 -5 -8 -7 -25 -4 -17 2 -29 1
-27 -3 3 -4 -4 -9 -15 -12 -11 -3 -23 -1 -26 5 -4 7 -9 6 -14 -2 -4 -6 -23
-12 -43 -13 -20 -1 -37 -6 -37 -11 0 -5 -8 -2 -17 5 -14 12 -16 12 -8 0 6 -11
3 -13 -13 -9 -12 4 -22 3 -22 -2 0 -4 -10 -6 -22 -6 -13 1 -29 -2 -35 -7 -9
-6 -13 -5 -13 4 0 12 -2 12 -9 0 -5 -8 -16 -11 -26 -8 -11 5 -14 3 -9 -5 5 -8
2 -9 -9 -5 -9 3 -19 2 -23 -4 -4 -7 -10 -6 -19 1 -9 8 -14 8 -17 0 -2 -6 -19
-12 -38 -14 -19 -2 -42 -7 -51 -10 -8 -4 -33 -8 -55 -10 -21 -2 -47 -7 -56
-11 -9 -4 -22 -4 -28 0 -5 3 -10 1 -10 -6 0 -8 -5 -7 -17 2 -9 8 -14 9 -10 3
4 -7 0 -14 -8 -18 -8 -3 -15 0 -15 6 0 7 -5 6 -15 -2 -8 -7 -22 -10 -30 -6 -8
3 -15 2 -15 -3 0 -5 -13 -7 -30 -6 -16 1 -28 -1 -25 -5 4 -7 -14 -9 -92 -13
-17 -1 -29 -6 -25 -11 3 -5 -5 -7 -16 -4 -12 4 -22 2 -22 -4 0 -6 -11 -8 -25
-6 -14 3 -25 1 -25 -6 0 -6 -5 -4 -10 4 -7 12 -10 12 -10 1 0 -7 -6 -11 -15
-7 -8 3 -15 0 -15 -6 0 -6 -3 -9 -6 -6 -3 4 -19 2 -35 -2 -20 -6 -29 -5 -29 3
0 8 -3 7 -9 -2 -5 -7 -14 -10 -20 -7 -6 4 -11 3 -11 -2 0 -5 -11 -8 -25 -7
-14 2 -25 0 -25 -4 0 -4 -15 -8 -33 -9 -18 -1 -44 -5 -57 -8 -43 -10 -74 -15
-103 -19 -16 -2 -31 -6 -34 -9 -4 -3 -13 0 -21 7 -12 9 -14 9 -9 0 9 -15 -42
-30 -90 -28 -18 1 -33 -2 -33 -6 0 -4 -13 -6 -30 -5 -16 1 -30 -1 -30 -5 0 -4
-11 -6 -25 -5 -13 2 -22 -1 -19 -6 4 -5 -4 -9 -17 -8 -13 1 -26 1 -29 0 -3 -1
-14 -4 -25 -5 -31 -4 -68 -12 -90 -20 -16 -6 -17 -5 -5 4 8 6 10 11 5 11 -6 0
-16 -5 -22 -11 -6 -6 -24 -12 -40 -14 -15 -1 -36 -6 -46 -10 -9 -4 -26 -5 -37
-2 -11 3 -20 2 -20 -3 0 -4 -11 -10 -25 -12 -14 -3 -25 -1 -25 6 0 8 -2 8 -8
0 -9 -16 -43 -21 -61 -10 -10 6 -12 5 -7 -2 7 -12 -2 -14 -56 -15 -15 0 -25
-4 -22 -8 2 -4 -11 -7 -31 -6 -19 1 -35 6 -35 10 0 5 -4 5 -10 2 -5 -3 -10 -1
-10 4 0 6 -7 11 -15 11 -8 0 -15 5 -15 11 0 5 -5 7 -10 4 -6 -3 -13 1 -16 10
-6 13 -8 14 -15 3 -6 -9 -9 -10 -9 -1 0 7 -6 10 -14 7 -8 -3 -23 -1 -34 5 -13
7 -22 7 -30 -1 -7 -7 -12 -8 -12 -2 0 5 -37 8 -87 6 -61 -2 -89 1 -95 10 -6
10 -8 10 -8 0 0 -10 -15 -13 -53 -11 -29 1 -59 -1 -65 -5 -7 -4 -12 -2 -12 4
0 6 -5 8 -11 4 -29 -18 -70 -5 -108 35 -22 23 -45 41 -51 41 -7 0 -10 7 -6 16
3 8 2 12 -4 9 -6 -3 -10 -1 -10 6 0 7 -3 10 -6 7 -8 -8 -54 37 -54 52 0 7 -3
10 -7 7 -3 -4 -28 16 -55 43 -26 27 -48 47 -48 45 0 -3 -11 5 -25 17 -13 11
-22 25 -19 30 3 5 2 7 -3 6 -13 -5 -73 54 -66 65 3 6 1 7 -5 3 -13 -8 -105 78
-94 88 4 4 2 6 -3 4 -6 -1 -21 7 -35 20 -13 12 -27 22 -32 22 -4 0 -8 8 -8 17
0 9 -3 14 -6 10 -8 -8 -34 18 -34 33 0 6 -3 9 -7 7 -11 -7 -33 19 -25 29 4 4
2 4 -4 1 -6 -4 -23 6 -37 21 -14 15 -53 51 -86 81 -33 30 -58 58 -55 63 3 5 2
7 -3 6 -12 -4 -64 38 -56 46 3 3 1 6 -6 6 -15 0 -67 51 -63 63 1 5 -2 6 -6 3
-12 -7 -44 28 -35 38 5 4 4 7 -2 6 -23 -5 -35 1 -35 17 0 9 -3 14 -6 10 -9 -9
-94 75 -87 87 3 5 1 6 -5 2 -6 -3 -20 6 -31 20 -12 15 -21 24 -21 20 0 -3 -9
2 -19 11 -11 9 -17 21 -14 27 3 6 3 8 -2 4 -8 -8 -40 20 -40 36 0 6 -8 10 -18
8 -10 -2 -17 3 -17 13 0 9 -4 13 -10 10 -5 -3 -10 1 -10 9 0 9 -6 16 -14 16
-8 0 -17 9 -21 20 -3 11 -10 19 -14 17 -11 -3 -70 56 -65 65 3 5 2 8 -3 7 -21
-4 -32 3 -38 22 -4 11 -9 18 -12 15 -8 -7 -79 65 -75 76 1 5 -2 7 -8 3 -5 -3
-10 -1 -10 4 0 6 -5 11 -11 11 -14 0 -79 67 -71 74 3 3 0 6 -7 6 -18 0 -81 62
-75 72 3 5 2 8 -3 7 -23 -4 -35 2 -29 17 3 8 2 12 -4 9 -12 -7 -40 18 -40 35
0 6 -3 9 -7 7 -11 -7 -33 19 -25 28 4 4 3 5 -3 3 -17 -5 -58 29 -50 43 5 8 4
10 -3 5 -15 -9 -84 53 -75 68 3 6 2 8 -2 3 -10 -9 -47 22 -39 34 3 5 -3 6 -12
2 -14 -5 -16 -3 -11 11 4 10 3 15 -3 11 -14 -8 -111 85 -103 98 3 6 2 7 -4 4
-6 -4 -25 8 -44 26 -52 50 -79 68 -49 32z m2310 -3890 c0 -8 -4 -15 -10 -15
-5 0 -7 7 -4 15 4 8 8 15 10 15 2 0 4 -7 4 -15z"/>
<path d="M3007 6729 c7 -7 15 -10 18 -7 3 3 -2 9 -12 12 -14 6 -15 5 -6 -5z"/>
<path d="M7453 6495 c0 -8 4 -12 9 -9 4 3 8 9 8 15 0 5 -4 9 -8 9 -5 0 -9 -7
-9 -15z"/>
</g>
</svg>
